<svg width="20" height="20" viewBox="0 0 20 20" fill="none" xmlns="http://www.w3.org/2000/svg">
<path d="M10.5433 0L7.93978 0.0982519L3.71636 4.65307L3.81472 7.25675L12.6126 15.4147L15.2163 15.3164L19.4396 10.7617L19.3413 8.15803L10.5433 0ZM15.3333 1.3864C15.0658 1.39649 14.8022 1.50902 14.605 1.72172L14.252 2.10245L16.9411 4.59599L17.2941 4.21527C17.6886 3.78986 17.6637 3.12981 17.2383 2.73535L16.0849 1.66585C15.8722 1.46862 15.6008 1.3763 15.3333 1.3864ZM6.20517 10.7806L2.71793 14.5415L5.40698 17.035L8.89422 13.2742L6.20517 10.7806ZM1.95729 15.3617L0.280262 17.1703C-0.1142 17.5957 -0.0892754 18.2558 0.336132 18.6502L1.48948 19.7197C1.91489 20.1142 2.57494 20.0893 2.9694 19.6639L4.64643 17.8553L1.95729 15.3617Z" fill="white"/>
</svg>
